<?xml version="1.0" encoding="UTF-8" standalone="no"?>
<!-- Created with Inkscape (http://www.inkscape.org/) -->

<svg
   xmlns:dc="http://purl.org/dc/elements/1.1/"
   xmlns:cc="http://creativecommons.org/ns#"
   xmlns:rdf="http://www.w3.org/1999/02/22-rdf-syntax-ns#"
   xmlns:svg="http://www.w3.org/2000/svg"
   xmlns="http://www.w3.org/2000/svg"
   xmlns:sodipodi="http://sodipodi.sourceforge.net/DTD/sodipodi-0.dtd"
   xmlns:inkscape="http://www.inkscape.org/namespaces/inkscape"
   width="400"
   height="100"
   viewBox="0 0 105.83333 26.458333"
   version="1.1"
   id="svg8"
   inkscape:version="0.92.5 (2060ec1f9f, 2020-04-08)"
   sodipodi:docname="logo.svg"
   inkscape:export-filename="C:\Users\avexy\Desktop\header_logo.png"
   inkscape:export-xdpi="96"
   inkscape:export-ydpi="96">
  <defs
     id="defs2" />
  <sodipodi:namedview
     id="base"
     pagecolor="#ffffff"
     bordercolor="#666666"
     borderopacity="1.0"
     inkscape:pageopacity="0.0"
     inkscape:pageshadow="2"
     inkscape:zoom="1.7058951"
     inkscape:cx="265.98453"
     inkscape:cy="50"
     inkscape:document-units="mm"
     inkscape:current-layer="layer1"
     showgrid="false"
     inkscape:pagecheckerboard="false"
     inkscape:showpageshadow="false"
     inkscape:window-width="1366"
     inkscape:window-height="705"
     inkscape:window-x="-8"
     inkscape:window-y="-8"
     inkscape:window-maximized="1"
     units="px" />
  <metadata
     id="metadata5">
    <rdf:RDF>
      <cc:Work
         rdf:about="">
        <dc:format>image/svg+xml</dc:format>
        <dc:type
           rdf:resource="http://purl.org/dc/dcmitype/StillImage" />
        <dc:title></dc:title>
      </cc:Work>
    </rdf:RDF>
  </metadata>
  <g
     inkscape:label="Capa 1"
     inkscape:groupmode="layer"
     id="layer1"
     transform="translate(0,-270.54168)">
    <text
       id="text834"
       y="233.24681"
       x="564.59198"
       style="font-style:normal;font-variant:normal;font-weight:normal;font-stretch:normal;font-size:28.22222137px;line-height:1.25;font-family:'PT Sans Narrow';-inkscape-font-specification:'PT Sans Narrow';text-align:end;letter-spacing:0px;word-spacing:0px;text-anchor:end;fill:#000000;fill-opacity:1;stroke:none;stroke-width:0.26458332"
       xml:space="preserve"><tspan
         rotate="0"
         style="font-style:normal;font-variant:normal;font-weight:300;font-stretch:condensed;font-size:70.55555725px;font-family:'Open Sans Condensed';-inkscape-font-specification:'Open Sans Condensed,  Light Condensed';stroke-width:0.26458332"
         y="258.97723"
         x="564.59198"
         id="tspan832"
         sodipodi:role="line" /></text>
    <text
       xml:space="preserve"
       style="font-style:normal;font-variant:normal;font-weight:normal;font-stretch:normal;font-size:28.22222137px;line-height:1.25;font-family:'PT Sans Narrow';-inkscape-font-specification:'PT Sans Narrow';text-align:end;letter-spacing:0px;word-spacing:0px;text-anchor:end;fill:#000000;fill-opacity:1;stroke:none;stroke-width:0.26458332"
       x="601.46082"
       y="188.69365"
       id="text1061"><tspan
         sodipodi:role="line"
         id="tspan1059"
         x="601.46082"
         y="214.42407"
         style="stroke-width:0.26458332" /></text>
    <text
       xml:space="preserve"
       style="font-style:normal;font-variant:normal;font-weight:normal;font-stretch:normal;font-size:28.22222137px;line-height:1.25;font-family:'PT Sans Narrow';-inkscape-font-specification:'PT Sans Narrow';text-align:end;letter-spacing:0px;word-spacing:0px;text-anchor:end;fill:#000000;fill-opacity:1;stroke:none;stroke-width:0.26458332"
       x="584.40594"
       y="186.1089"
       id="text1065"><tspan
         sodipodi:role="line"
         id="tspan1063"
         x="584.40594"
         y="211.83932"
         style="stroke-width:0.26458332" /></text>
    <text
       xml:space="preserve"
       style="font-style:normal;font-variant:normal;font-weight:normal;font-stretch:normal;font-size:28.22222137px;line-height:1.25;font-family:'PT Sans Narrow';-inkscape-font-specification:'PT Sans Narrow';text-align:end;letter-spacing:0px;word-spacing:0px;text-anchor:end;fill:#000000;fill-opacity:1;stroke:none;stroke-width:0.26458332"
       x="570.49506"
       y="169.77228"
       id="text1069"><tspan
         sodipodi:role="line"
         id="tspan1067"
         x="570.49506"
         y="195.5027"
         style="stroke-width:0.26458332" /></text>
    <rect
       style="opacity:1;fill:#684bff;fill-opacity:1;stroke:none;stroke-width:0.65564519;stroke-linecap:round;stroke-linejoin:round;stroke-miterlimit:4;stroke-dasharray:none;stroke-opacity:1;paint-order:normal"
       id="rect958"
       width="134.9375"
       height="31.75"
       x="-4.7529297e-06"
       y="267.36673"
       ry="4.2677035"
       inkscape:export-xdpi="96"
       inkscape:export-ydpi="96" />
    <g
       style="fill:#ffffff"
       transform="matrix(0.49670487,0,0,0.49670487,-220.49682,214.84474)"
       id="g1182">
      <path
         inkscape:connector-curvature="0"
         id="path1168"
         d="m 456.15223,153.07369 c 0.23283,-0.15047 0.55033,-0.27358 0.70555,-0.27358 0.15523,0 0.0917,0.12311 -0.14111,0.27358 -0.23283,0.15047 -0.55033,0.27357 -0.70555,0.27357 -0.15523,0 -0.0917,-0.1231 0.14111,-0.27357 z m 4.445,-3.00914 c 0.19403,-0.0783 0.51153,-0.0783 0.70555,0 0.19403,0.0783 0.0353,0.14235 -0.35277,0.14235 -0.38806,0 -0.54681,-0.064 -0.35278,-0.14235 z m 18.90889,-3.38666 c 0.19403,-0.0783 0.51153,-0.0783 0.70555,0 0.19403,0.0783 0.0353,0.14235 -0.35277,0.14235 -0.38806,0 -0.54681,-0.0641 -0.35278,-0.14235 z m 7.07319,-0.006 c 0.20373,-0.0815 0.44715,-0.0715 0.54093,0.0223 0.0938,0.0938 -0.0729,0.16049 -0.37042,0.14823 -0.32877,-0.0135 -0.39564,-0.0804 -0.17051,-0.1705 z m -14.65864,-12.15445 c -0.35104,-0.44762 -0.34106,-0.4576 0.10656,-0.10655 0.27164,0.21303 0.49389,0.43528 0.49389,0.49389 0,0.23228 -0.23176,0.0828 -0.60045,-0.38734 z m 45.30586,-13.68777 -0.53763,-0.635 0.635,0.53763 c 0.59674,0.50524 0.76348,0.73237 0.53763,0.73237 -0.0536,0 -0.33931,-0.28575 -0.635,-0.635 z m -16.34208,-2.46945 c -0.0959,-0.15522 -0.0399,-0.28222 0.12446,-0.28222 0.16438,0 0.29888,0.127 0.29888,0.28222 0,0.15522 -0.056,0.28222 -0.12446,0.28222 -0.0684,0 -0.20294,-0.127 -0.29888,-0.28222 z m -23.76871,-10.08557 c 0.74199,-0.0583 1.88499,-0.0576 2.54,0.002 0.65502,0.0592 0.0479,0.10691 -1.34907,0.10605 -1.397,-8.4e-4 -1.93291,-0.0493 -1.19093,-0.10761 z m -0.003,-1.3989 c 0.27459,-0.0716 0.65559,-0.0668 0.84667,0.0105 0.19107,0.0773 -0.0336,0.13585 -0.49926,0.1301 -0.46567,-0.006 -0.622,-0.069 -0.34741,-0.14056 z m 2.69338,0.003 c 0.20373,-0.0815 0.44714,-0.0715 0.54093,0.0223 0.0938,0.0938 -0.0729,0.16048 -0.37042,0.14823 -0.32877,-0.0135 -0.39565,-0.0804 -0.17051,-0.17051 z"
         style="fill:#ffffff;fill-opacity:1;stroke-width:0.28222224" />
      <path
         inkscape:connector-curvature="0"
         id="path1170"
         d="m 475.98371,171.787 c 0.27459,-0.0716 0.65559,-0.0669 0.84667,0.0105 0.19107,0.0773 -0.0336,0.13585 -0.49926,0.1301 -0.46567,-0.006 -0.622,-0.069 -0.34741,-0.14056 z m -3.03926,-2.0622 c 0.0959,-0.15522 0.23043,-0.28222 0.29888,-0.28222 0.0684,0 0.12445,0.127 0.12445,0.28222 0,0.15522 -0.13449,0.28222 -0.29887,0.28222 -0.16439,0 -0.22039,-0.127 -0.12446,-0.28222 z m 30.48,-10.44222 c -0.0959,-0.15523 0.0311,-0.28223 0.28222,-0.28223 0.25116,0 0.37816,0.127 0.28223,0.28223 -0.0959,0.15522 -0.22294,0.28222 -0.28223,0.28222 -0.0593,0 -0.18628,-0.127 -0.28222,-0.28222 z m -41.96292,-7.24835 c 0.20373,-0.0815 0.44715,-0.0715 0.54093,0.0223 0.0938,0.0938 -0.0729,0.16048 -0.37042,0.14823 -0.32877,-0.0136 -0.39564,-0.0804 -0.17051,-0.17051 z m 25.94681,-5.35634 c 0.19403,-0.0783 0.51153,-0.0783 0.70556,0 0.19402,0.0783 0.0353,0.14235 -0.35278,0.14235 -0.38806,0 -0.54681,-0.0641 -0.35278,-0.14235 z m -47.3205,-18.03994 c 0.0135,-0.32878 0.0804,-0.39565 0.17051,-0.17051 0.0815,0.20372 0.0715,0.44714 -0.0223,0.54092 -0.0938,0.0938 -0.16048,-0.0729 -0.14823,-0.37041 z m 39.20661,-3.61082 c 0,-0.0586 0.22225,-0.28085 0.49389,-0.49389 0.44762,-0.35105 0.4576,-0.34107 0.10656,0.10656 -0.36869,0.47011 -0.60045,0.61961 -0.60045,0.38733 z m 36.80319,-5.32622 -0.53763,-0.635 0.635,0.53763 c 0.59674,0.50524 0.76348,0.73237 0.53763,0.73237 -0.0536,0 -0.33931,-0.28575 -0.635,-0.635 z m -15.70708,-0.12862 c 0.34925,-0.0673 0.92075,-0.0673 1.27,0 0.34925,0.0673 0.0635,0.12231 -0.635,0.12231 -0.6985,0 -0.98425,-0.055 -0.635,-0.12231 z m -19.45569,-11.28251 c 0.20373,-0.0815 0.44714,-0.0715 0.54093,0.0223 0.0938,0.0938 -0.0729,0.16049 -0.37042,0.14823 -0.32878,-0.0135 -0.39565,-0.0804 -0.17051,-0.17051 z m -2.41116,-1.4139 c 0.27459,-0.0716 0.65559,-0.0668 0.84667,0.0105 0.19107,0.0773 -0.0336,0.13585 -0.49926,0.1301 -0.46567,-0.006 -0.622,-0.069 -0.34741,-0.14056 z"
         style="fill:#ffffff;fill-opacity:1;stroke-width:0.28222224" />
      <path
         inkscape:connector-curvature="0"
         id="path1172"
         d="m 476.70153,171.22534 c 0.20373,-0.0815 0.44715,-0.0715 0.54093,0.0223 0.0938,0.0938 -0.0729,0.16048 -0.37042,0.14823 -0.32877,-0.0135 -0.39564,-0.0804 -0.17051,-0.17051 z m 4.51556,0 c 0.20373,-0.0815 0.44714,-0.0715 0.54093,0.0223 0.0938,0.0938 -0.0729,0.16048 -0.37042,0.14823 -0.32877,-0.0135 -0.39565,-0.0804 -0.17051,-0.17051 z m 14.75075,-6.74517 c 0.0135,-0.32877 0.0804,-0.39565 0.17051,-0.17051 0.0815,0.20373 0.0715,0.44715 -0.0223,0.54093 -0.0938,0.0938 -0.16048,-0.0729 -0.14822,-0.37042 z m -39.11006,-10.27759 c 0.0959,-0.15523 0.23043,-0.28223 0.29888,-0.28223 0.0684,0 0.12446,0.127 0.12446,0.28223 0,0.15522 -0.1345,0.28222 -0.29888,0.28222 -0.16438,0 -0.22039,-0.127 -0.12446,-0.28222 z m 31.69709,-7.53057 c 0.20373,-0.0815 0.44714,-0.0715 0.54093,0.0223 0.0938,0.0938 -0.0729,0.16048 -0.37042,0.14822 -0.32878,-0.0135 -0.39565,-0.0804 -0.17051,-0.1705 z m 30.46236,-2.81635 c 0.19403,-0.0783 0.51153,-0.0783 0.70556,0 0.19402,0.0783 0.0353,0.14235 -0.35278,0.14235 -0.38806,0 -0.54681,-0.064 -0.35278,-0.14235 z m -80.88266,-8.8442 c 0,-0.38805 0.0641,-0.5468 0.14235,-0.35277 0.0783,0.19402 0.0783,0.51152 0,0.70555 -0.0783,0.19403 -0.14235,0.0353 -0.14235,-0.35278 z m 67.12433,-20.43091 c 0,-0.061 0.1905,-0.18402 0.42333,-0.27337 0.23283,-0.0893 0.42333,-0.0394 0.42333,0.11092 0,0.15035 -0.1905,0.27336 -0.42333,0.27336 -0.23283,0 -0.42333,-0.0499 -0.42333,-0.11091 z m -45.08501,-0.9303 c 0.27164,-0.071 0.71614,-0.071 0.98778,0 0.27164,0.071 0.0494,0.12907 -0.49389,0.12907 -0.54327,0 -0.76552,-0.0581 -0.49389,-0.12907 z"
         style="fill:#ffffff;fill-opacity:1;stroke-width:0.28222224" />
      <path
         inkscape:connector-curvature="0"
         id="path1174"
         d="m 477.5482,171.22534 c 0.20373,-0.0815 0.44715,-0.0715 0.54093,0.0223 0.0938,0.0938 -0.0729,0.16048 -0.37042,0.14823 -0.32877,-0.0135 -0.39565,-0.0804 -0.17051,-0.17051 z m 2.82222,0 c 0.20373,-0.0815 0.44715,-0.0715 0.54093,0.0223 0.0938,0.0938 -0.0729,0.16048 -0.37042,0.14823 -0.32877,-0.0135 -0.39564,-0.0804 -0.17051,-0.17051 z m 19.24403,-8.94488 c 0,-0.0586 0.22225,-0.28085 0.49389,-0.49388 0.44762,-0.35105 0.45761,-0.34107 0.10656,0.10655 -0.36869,0.47011 -0.60045,0.61962 -0.60045,0.38733 z m -35.35304,-1.62179 c 0.19145,-0.19288 0.41917,-0.27959 0.50606,-0.1927 0.0869,0.0869 -0.0697,0.2447 -0.34807,0.35068 -0.40222,0.15316 -0.43464,0.12074 -0.15799,-0.15798 z m 39.16504,-1.09064 c -0.0989,-0.15998 0.0144,-0.20729 0.26557,-0.11092 0.48892,0.18762 0.57838,0.38991 0.17242,0.38991 -0.14606,0 -0.34316,-0.12555 -0.43799,-0.27899 z m 13.19189,-15.7276 c 0.42686,-0.0647 1.12536,-0.0647 1.55222,0 0.42687,0.0647 0.0776,0.11757 -0.77611,0.11757 -0.85372,0 -1.20297,-0.0529 -0.77611,-0.11757 z m -69.94737,-6.0773 -0.53763,-0.635 0.635,0.53763 c 0.34925,0.2957 0.635,0.58145 0.635,0.635 0,0.22585 -0.22713,0.0591 -0.73237,-0.53763 z m 50.12126,-3.98711 c 0,-0.0586 0.22225,-0.28085 0.49389,-0.49389 0.44762,-0.35105 0.4576,-0.34107 0.10655,0.10656 -0.36868,0.47011 -0.60044,0.61961 -0.60044,0.38733 z m -18.74963,-3.76183 c -0.15316,-0.40222 -0.12074,-0.43464 0.15798,-0.15799 0.19288,0.19145 0.27959,0.41917 0.1927,0.50606 -0.0869,0.0869 -0.2447,-0.0697 -0.35068,-0.34807 z m 13.97413,-5.32736 c 0.0136,-0.32877 0.0804,-0.39564 0.17051,-0.17051 0.0815,0.20373 0.0715,0.44715 -0.0223,0.54093 -0.0938,0.0938 -0.16048,-0.0729 -0.14823,-0.37042 z m 22.38758,-6.67926 -0.53763,-0.635 0.635,0.53763 c 0.59674,0.50524 0.76347,0.73237 0.53763,0.73237 -0.0536,0 -0.33931,-0.28575 -0.635,-0.635 z m -18.24708,0.16587 c 0.19403,-0.0783 0.51153,-0.0783 0.70556,0 0.19402,0.0783 0.0353,0.14235 -0.35278,0.14235 -0.38806,0 -0.54681,-0.0641 -0.35278,-0.14235 z m -36.90056,-4.32864 c 0,-0.15523 0.1345,-0.28223 0.29888,-0.28223 0.16438,0 0.22039,0.127 0.12446,0.28223 -0.0959,0.15522 -0.23043,0.28222 -0.29888,0.28222 -0.0684,0 -0.12446,-0.127 -0.12446,-0.28222 z m 23.08931,-5.55502 c 0.20373,-0.0815 0.44714,-0.0715 0.54093,0.0223 0.0938,0.0938 -0.0729,0.16049 -0.37042,0.14823 -0.32878,-0.0135 -0.39565,-0.0804 -0.17051,-0.17051 z"
         style="fill:#ffffff;fill-opacity:1;stroke-width:0.28222224" />
      <path
         inkscape:connector-curvature="0"
         id="path1176"
         d="m 478.66274,171.21853 c 0.35106,-0.0675 0.85906,-0.0649 1.12889,0.006 0.26983,0.0706 -0.0174,0.12587 -0.63829,0.12274 -0.62089,-0.003 -0.84166,-0.0609 -0.4906,-0.12844 z m -6.14698,-2.77019 c -0.29825,-0.35937 -0.28079,-0.40067 0.10655,-0.25203 0.25479,0.0978 0.46325,0.29118 0.46325,0.42979 0,0.36293 -0.16337,0.31196 -0.5698,-0.17776 z m -0.7002,-1.26354 c -0.0959,-0.15522 -0.0399,-0.28222 0.12446,-0.28222 0.16438,0 0.29888,0.127 0.29888,0.28222 0,0.15522 -0.056,0.28222 -0.12446,0.28222 -0.0684,0 -0.20294,-0.127 -0.29888,-0.28222 z m -5.50333,-5.08 c -0.25437,-0.16438 -0.28917,-0.27531 -0.0872,-0.2779 0.18486,-0.002 0.41461,0.12268 0.51054,0.2779 0.21655,0.35039 0.11885,0.35039 -0.42333,0 z m -4.23334,-2.36434 c 0,-0.0586 0.22225,-0.28085 0.49389,-0.49388 0.44763,-0.35105 0.45761,-0.34107 0.10656,0.10655 -0.36869,0.47011 -0.60045,0.61961 -0.60045,0.38733 z m 50.08285,-8.94333 c -0.10232,-0.16555 -0.1255,-0.36152 -0.0515,-0.4355 0.074,-0.074 0.20971,0.0615 0.30162,0.301 0.19084,0.4973 0.0282,0.58478 -0.2501,0.1345 z M 449.3429,139.8798 c -0.35105,-0.44762 -0.34107,-0.45761 0.10655,-0.10656 0.27164,0.21304 0.49389,0.43529 0.49389,0.49389 0,0.23228 -0.23176,0.0828 -0.60044,-0.38733 z m -4.07398,-3.52778 -0.82891,-0.91722 0.91722,0.82891 c 0.85498,0.77266 1.04694,1.00553 0.82891,1.00553 -0.0486,0 -0.46132,-0.41275 -0.91722,-0.91722 z m 37.62386,0.44809 c 0.19403,-0.0783 0.51153,-0.0783 0.70556,0 0.19403,0.0783 0.0353,0.14235 -0.35278,0.14235 -0.38805,0 -0.5468,-0.0641 -0.35278,-0.14235 z m -43.3148,-3.48198 c 0,-0.6985 0.055,-0.98425 0.12231,-0.635 0.0673,0.34925 0.0673,0.92075 0,1.27 -0.0673,0.34925 -0.12231,0.0635 -0.12231,-0.635 z m 2.90308,-0.15009 c -0.3013,-0.22789 -0.4121,-0.41435 -0.24622,-0.41435 0.16588,0 0.45971,0.1905 0.65294,0.42333 0.43948,0.52954 0.30123,0.52649 -0.40672,-0.009 z m 51.20673,-1.06711 c 0,-0.0486 0.41275,-0.46132 0.91722,-0.91722 l 0.91722,-0.82891 -0.82891,0.91722 c -0.77266,0.85498 -1.00553,1.04694 -1.00553,0.82891 z m 7.05555,-3.68713 c 0,-0.0586 0.22225,-0.28086 0.49389,-0.49389 0.44762,-0.35105 0.4576,-0.34107 0.10656,0.10655 -0.36869,0.47011 -0.60045,0.61962 -0.60045,0.38734 z m -3.66889,-6.363 -0.98778,-0.18637 0.9064,-0.14935 c 0.60437,-0.0996 0.95407,-0.0251 1.04948,0.22352 0.0787,0.20507 0.11531,0.35614 0.0814,0.33571 -0.0339,-0.0204 -0.5062,-0.12102 -1.04948,-0.22351 z m 0.56445,-3.69045 -0.70556,-0.22596 0.77611,-0.0281 c 0.42686,-0.0155 0.77611,0.0989 0.77611,0.25409 0,0.15522 -0.0318,0.26956 -0.0706,0.25409 -0.0388,-0.0155 -0.38806,-0.12981 -0.77611,-0.25409 z m -14.44625,-10.07057 c 0.20372,-0.0815 0.44714,-0.0715 0.54092,0.0223 0.0938,0.0938 -0.0729,0.16049 -0.37041,0.14823 -0.32878,-0.0135 -0.39565,-0.0804 -0.17051,-0.17051 z m -19.42042,-0.20035 c 0,-0.061 0.19709,-0.18655 0.43799,-0.27899 0.25116,-0.0964 0.36444,-0.0491 0.26557,0.11092 -0.16574,0.26817 -0.70356,0.39665 -0.70356,0.16807 z m 20.26708,-0.92854 c 0.20373,-0.0815 0.44715,-0.0715 0.54093,0.0223 0.0938,0.0938 -0.0729,0.16048 -0.37042,0.14822 -0.32877,-0.0135 -0.39564,-0.0804 -0.17051,-0.17051 z"
         style="fill:#ffffff;fill-opacity:1;stroke-width:0.28222224" />
      <path
         inkscape:connector-curvature="0"
         id="path1178"
         d="m 490.86556,167.45036 c 0,-0.16438 0.127,-0.22038 0.28223,-0.12445 0.15522,0.0959 0.28222,0.23043 0.28222,0.29888 0,0.0685 -0.127,0.12445 -0.28222,0.12445 -0.15523,0 -0.28223,-0.13449 -0.28223,-0.29888 z m 2.63408,-1.52315 c 0,-0.226 0.1079,-0.34423 0.23979,-0.26272 0.13188,0.0815 0.16672,0.26642 0.0774,0.41092 -0.22821,0.36926 -0.3172,0.32768 -0.3172,-0.1482 z m 1.26412,-1.19298 c 0.20373,-0.0815 0.44714,-0.0715 0.54092,0.0223 0.0938,0.0938 -0.0729,0.16048 -0.37041,0.14823 -0.32878,-0.0136 -0.39565,-0.0804 -0.17051,-0.17051 z m 1.97555,-1.41111 c 0.20373,-0.0815 0.44715,-0.0715 0.54093,0.0223 0.0938,0.0938 -0.0729,0.16048 -0.37042,0.14823 -0.32877,-0.0135 -0.39564,-0.0804 -0.17051,-0.17051 z m -40.58708,-9.09276 c 0,-0.29307 0.53684,-0.71733 0.69587,-0.54993 0.0516,0.0543 -0.0838,0.26257 -0.301,0.46272 -0.21718,0.20014 -0.39487,0.23939 -0.39487,0.0872 z m 7.05555,-6.22002 c 0,-0.14606 0.12555,-0.34316 0.27899,-0.43799 0.15999,-0.0989 0.2073,0.0144 0.11092,0.26557 -0.18762,0.48892 -0.38991,0.57838 -0.38991,0.17242 z m 50.67095,-0.84382 c -0.0893,-0.1445 -0.0545,-0.32941 0.0774,-0.41092 0.13188,-0.0815 0.23979,0.0367 0.23979,0.26272 0,0.47588 -0.089,0.51746 -0.31721,0.1482 z m -66.79361,-12.0845 c -0.35105,-0.44762 -0.34107,-0.4576 0.10655,-0.10656 0.27164,0.21304 0.49389,0.43529 0.49389,0.49389 0,0.23228 -0.23176,0.0828 -0.60044,-0.38733 z m 25.41464,-0.28222 -0.6842,-0.77611 0.77611,0.68419 c 0.7254,0.63948 0.90554,0.86803 0.6842,0.86803 -0.0505,0 -0.3998,-0.34925 -0.77611,-0.77611 z m -28.93324,-0.70556 -0.53763,-0.635 0.635,0.53763 c 0.59675,0.50524 0.76348,0.73237 0.53763,0.73237 -0.0536,0 -0.3393,-0.28575 -0.635,-0.635 z m 1.55768,-0.98778 -0.68419,-0.77611 0.77611,0.6842 c 0.72539,0.63948 0.90553,0.86802 0.68419,0.86802 -0.0505,0 -0.3998,-0.34925 -0.77611,-0.77611 z m 29.33647,0 c -0.35104,-0.44762 -0.34106,-0.4576 0.10656,-0.10655 0.27164,0.21303 0.49389,0.43528 0.49389,0.49389 0,0.23228 -0.23176,0.0828 -0.60045,-0.38734 z m -27.49842,-1.55222 -0.82891,-0.91722 0.91722,0.82891 c 0.50447,0.4559 0.91722,0.86865 0.91722,0.91722 0,0.21804 -0.23287,0.0261 -1.00553,-0.82891 z m 50.95887,0.81067 c 0,-0.0586 0.22225,-0.28086 0.49389,-0.49389 0.44762,-0.35105 0.4576,-0.34107 0.10655,0.10655 -0.36868,0.47012 -0.60044,0.61962 -0.60044,0.38734 z m -56.76267,-4.05622 c -0.35105,-0.44763 -0.34107,-0.45761 0.10655,-0.10656 0.27164,0.21303 0.49389,0.43528 0.49389,0.49389 0,0.23228 -0.23175,0.0828 -0.60044,-0.38733 z m 77.52415,-0.27005 c -0.15316,-0.40223 -0.12074,-0.43464 0.15799,-0.15799 0.19287,0.19144 0.27958,0.41916 0.19269,0.50606 -0.0869,0.0869 -0.2447,-0.0697 -0.35068,-0.34807 z m -75.26637,-0.57662 c -0.35105,-0.44762 -0.34107,-0.45761 0.10655,-0.10656 0.27164,0.21304 0.49389,0.43529 0.49389,0.49389 0,0.23228 -0.23176,0.0828 -0.60044,-0.38733 z m 36.51977,-2.33489 c -0.0227,-0.30073 0.0561,-0.60689 0.17495,-0.68035 0.11887,-0.0735 0.19805,0.11194 0.17594,0.41202 -0.0553,0.75025 -0.30046,0.93775 -0.35089,0.26833 z m 34.03579,-0.76956 c -0.35105,-0.44762 -0.34107,-0.4576 0.10655,-0.10655 0.27164,0.21303 0.49389,0.43528 0.49389,0.49389 0,0.23228 -0.23176,0.0828 -0.60044,-0.38734 z m -16.33289,-2.02945 c 0,-0.14606 0.12554,-0.34316 0.27899,-0.43799 0.15998,-0.0989 0.20729,0.0144 0.11091,0.26556 -0.18761,0.48893 -0.3899,0.57839 -0.3899,0.17243 z m 20.05863,-1.26153 c -0.25462,-0.3068 -0.24636,-0.44676 0.036,-0.60969 0.20156,-0.11632 0.27233,-0.10756 0.15726,0.0195 -0.11507,0.12702 -0.0678,0.40138 0.10511,0.60969 0.17288,0.20831 0.25083,0.37874 0.17322,0.37874 -0.0776,0 -0.28983,-0.17919 -0.47159,-0.3982 z m -14.13197,-2.42402 c -0.25436,-0.16438 -0.28917,-0.2753 -0.0872,-0.2779 0.18487,-0.002 0.41461,0.12268 0.51055,0.2779 0.21655,0.35039 0.11885,0.35039 -0.42334,0 z m 8.18445,-1.35753 c 0,-0.45506 1.14247,-0.71767 1.51007,-0.34711 0.24519,0.24715 0.20293,0.28073 -0.17311,0.13757 -0.27362,-0.10418 -0.68637,-0.0327 -0.91722,0.15894 -0.26246,0.21783 -0.41974,0.23679 -0.41974,0.0506 z m -5.78556,-3.15802 c -0.46014,-0.19773 -0.47625,-0.24622 -0.0872,-0.26239 0.26248,-0.0109 0.55572,0.10717 0.65166,0.26239 0.20056,0.32452 0.19075,0.32452 -0.56445,0 z m -21.92514,-5.83724 c 0.20373,-0.0815 0.44715,-0.0715 0.54093,0.0223 0.0938,0.0938 -0.0729,0.16049 -0.37042,0.14823 -0.32877,-0.0135 -0.39564,-0.0804 -0.17051,-0.17051 z m -19.56153,-0.37165 c 0.0959,-0.15522 0.30143,-0.28222 0.45665,-0.28222 0.15522,0 0.20373,0.127 0.1078,0.28222 -0.0959,0.15522 -0.30142,0.28222 -0.45665,0.28222 -0.15522,0 -0.20373,-0.127 -0.1078,-0.28222 z m 8.55487,-0.75724 c 0.20372,-0.0815 0.44714,-0.0715 0.54092,0.0223 0.0938,0.0938 -0.0729,0.16048 -0.37041,0.14822 -0.32878,-0.0135 -0.39565,-0.0804 -0.17051,-0.17051 z m 10.16,0 c 0.20372,-0.0815 0.44714,-0.0715 0.54092,0.0223 0.0938,0.0938 -0.0729,0.16048 -0.37041,0.14822 -0.32878,-0.0135 -0.39565,-0.0804 -0.17051,-0.17051 z"
         style="fill:#ffffff;fill-opacity:1;stroke-width:0.28222224" />
      <path
         inkscape:connector-curvature="0"
         id="path1180"
         d="m 475.9953,170.73191 c -0.18469,-0.21039 -0.26696,-0.45136 -0.18282,-0.53551 0.0841,-0.0841 -0.33413,-0.24436 -0.92949,-0.35605 -0.89423,-0.16777 -0.98513,-0.24109 -0.52272,-0.4217 0.3924,-0.15326 0.13787,-0.2299 -0.85137,-0.25635 -1.27548,-0.0341 -1.3433,-0.0673 -0.70556,-0.34505 0.58527,-0.25492 0.62077,-0.32768 0.20821,-0.4268 -0.27354,-0.0657 -0.42479,-0.23687 -0.33612,-0.38034 0.0887,-0.14348 -0.12455,-0.26087 -0.47382,-0.26087 -0.61897,0 -0.62118,-0.0105 -0.0872,-0.41436 0.5163,-0.3905 0.49098,-0.41601 -0.43995,-0.44316 -0.79493,-0.0232 -0.87758,-0.0735 -0.42333,-0.25781 0.49391,-0.20038 0.45865,-0.24198 -0.28222,-0.33294 -0.51547,-0.0633 -0.84667,-0.26847 -0.84667,-0.52451 0,-0.2431 0.35726,-0.489 0.84667,-0.58276 0.82094,-0.15726 0.81023,-0.16882 -0.35278,-0.38035 -0.6597,-0.11999 -1.19945,-0.334 -1.19945,-0.47558 0,-0.14158 -0.47625,-0.26744 -1.05833,-0.2797 -0.58208,-0.0122 -0.89879,-0.0866 -0.7038,-0.16521 0.50594,-0.20398 0.14066,-0.65917 -0.52896,-0.65917 -0.31044,0 -0.49189,-0.11739 -0.40322,-0.26087 0.0887,-0.14347 -0.0626,-0.31924 -0.33612,-0.39059 -0.4699,-0.12258 -0.4701,-0.13154 -0.003,-0.16247 0.91686,-0.0608 0.50233,-0.59718 -0.46149,-0.59718 -0.52546,0 -1.38271,-0.18553 -1.905,-0.41229 l -0.94963,-0.41229 0.90057,-0.011 c 0.49531,-0.006 0.97906,-0.13805 1.07499,-0.29327 0.10447,-0.16904 -0.25669,-0.28396 -0.90057,-0.28654 -0.69609,-0.003 -0.94223,-0.0885 -0.69835,-0.24307 0.28409,-0.18008 0.2251,-0.27838 -0.24006,-0.40002 -0.34207,-0.0894 -0.5338,-0.29541 -0.43054,-0.46249 0.10524,-0.17028 -0.0358,-0.30512 -0.32438,-0.31019 -0.2808,-0.005 -0.75707,-0.19544 -1.05837,-0.42333 -0.30132,-0.22791 -0.82656,-0.41437 -1.1672,-0.41437 -0.77061,0 -2.15848,-0.69794 -2.04101,-1.02639 0.0479,-0.13399 -0.2005,-0.28444 -0.55205,-0.33434 -0.35155,-0.0499 -0.56631,-0.20866 -0.47723,-0.35278 0.0891,-0.14413 -0.0321,-0.26205 -0.26918,-0.26205 -0.26728,0 -0.3694,-0.16089 -0.26869,-0.42333 0.11509,-0.29993 -0.0315,-0.42912 -0.50274,-0.44317 -0.62352,-0.0186 -0.62983,-0.035 -0.10075,-0.26239 0.48266,-0.2074 0.49288,-0.24542 0.0705,-0.26238 -0.5383,-0.0216 -0.66238,-0.44684 -0.21166,-0.7254 0.15522,-0.0959 0.28222,-0.0399 0.28222,0.12446 0,0.16438 0.3175,0.29888 0.70555,0.29888 0.73806,0 0.95986,-0.4148 0.35278,-0.65976 -0.19403,-0.0783 0.34572,-0.1704 1.19945,-0.20468 1.54668,-0.0621 1.54819,-0.0631 0.42333,-0.26445 -0.62089,-0.11117 -0.89305,-0.22015 -0.60481,-0.24217 0.34255,-0.0262 0.46782,-0.18669 0.36164,-0.46339 -0.12287,-0.32019 0.0589,-0.42816 0.74592,-0.44317 0.76358,-0.0167 0.81839,-0.0585 0.34392,-0.26238 -0.4517,-0.1941 -0.35127,-0.24651 0.50274,-0.26239 0.67411,-0.0125 1.12703,-0.17576 1.22964,-0.44317 0.0926,-0.24131 0.51352,-0.42333 0.97892,-0.42333 0.44906,0 0.81647,-0.127 0.81647,-0.28222 0,-0.15523 0.198,-0.28223 0.43999,-0.28223 0.242,0 0.3615,0.127 0.26557,0.28223 -0.0989,0.16006 0.13818,0.28222 0.54779,0.28222 0.7999,0 1.01442,-0.55126 0.22832,-0.58673 -0.29765,-0.0134 -0.35309,-0.079 -0.13954,-0.16515 0.24715,-0.0996 0.17524,-0.28792 -0.23772,-0.62231 -0.32564,-0.26369 -0.6121,-0.82428 -0.63658,-1.24576 -0.0381,-0.65685 -0.16781,-0.76635 -0.90777,-0.76652 -0.47481,-1.1e-4 -1.10981,-0.18666 -1.41112,-0.41456 -0.3013,-0.22789 -0.7168,-0.41839 -0.92333,-0.42333 -0.20653,-0.005 -1.04517,-0.45347 -1.86366,-0.99675 -0.81848,-0.54328 -1.61295,-0.98778 -1.76549,-0.98778 -0.50837,0 -5.84423,-3.52526 -7.98979,-5.27863 -1.16417,-0.95138 -3.00567,-2.65791 -4.09222,-3.7923 -2.03916,-2.12892 -1.76738,-1.98995 1.09091,0.55782 2.28955,2.04083 4.69257,3.70519 7.51687,5.20629 4.41196,2.34494 4.86791,2.07695 1.17392,-0.68997 -1.37223,-1.02784 -2.86448,-2.0645 -3.31611,-2.30368 -1.81924,-0.96347 -6.01479,-5.09845 -8.71251,-8.58675 -1.78796,-2.31193 -2.27251,-2.31193 -2.56526,0 -0.34893,2.75571 -0.20135,8.75427 0.2994,12.16882 0.25052,1.70828 0.87681,4.73523 1.39175,6.72657 0.51494,1.99134 0.83781,3.68145 0.71749,3.75581 -0.29165,0.18025 -1.49252,-2.86352 -2.39217,-6.06328 -1.40936,-5.01263 -1.91982,-11.54185 -1.26928,-16.23515 0.35633,-2.57076 1.45014,-7.48074 1.66463,-7.47235 0.0919,0.004 0.66412,0.89035 1.27169,1.97057 1.66226,2.95541 5.25356,6.9881 9.19645,10.32673 6.13637,5.19599 11.97667,8.07963 22.57777,11.14777 1.79877,0.52059 3.0554,0.63266 8.36703,0.74621 7.50967,0.16053 12.11997,-0.18542 19.74937,-1.48199 7.39876,-1.25736 9.67306,-1.72699 12.24138,-2.52775 2.51658,-0.78462 4.79778,-1.16644 4.79778,-0.80302 0,0.14191 -0.5715,0.53568 -1.27,0.87504 -0.6985,0.33936 -1.27,0.74566 -1.27,0.9029 0,0.16593 0.85859,0.28966 2.04611,0.29487 1.85245,0.008 1.99473,0.0479 1.5032,0.41974 -0.29861,0.22592 -0.99711,0.48681 -1.55223,0.57975 -1.30855,0.21907 -3.39487,1.04255 -3.2471,1.28164 0.0631,0.10215 -0.16399,0.25862 -0.50472,0.34773 -0.34072,0.0891 -0.53186,0.24964 -0.42474,0.35675 0.10711,0.10712 -0.12723,0.49315 -0.52076,0.85786 -0.39353,0.36471 -0.58643,0.66311 -0.42867,0.66311 0.15776,0 0.41731,0.2438 0.57677,0.54177 0.24488,0.45755 0.15868,0.59987 -0.55451,0.91556 -0.88519,0.39182 -1.03666,0.64835 -0.55763,0.9444 0.4164,0.25735 0.0515,0.70272 -0.57578,0.70272 -0.29582,0 -0.67894,0.26361 -0.85137,0.5858 -0.17243,0.3222 -0.55467,0.82697 -0.84942,1.12171 -0.29475,0.29475 -0.6164,0.85664 -0.71479,1.24864 -0.13741,0.54751 -0.36005,0.71273 -0.9604,0.71273 -0.42983,0 -0.93961,0.1905 -1.13285,0.42334 -0.19323,0.23283 -0.53378,0.42333 -0.75676,0.42333 -0.22299,0 -0.32695,0.127 -0.23101,0.28222 0.0959,0.15523 -0.0372,0.28223 -0.29577,0.28223 -0.30199,0 -0.41207,0.15143 -0.30773,0.42333 0.0894,0.23283 0.0483,0.42333 -0.0913,0.42333 -0.13955,0 -0.29432,0.28575 -0.34392,0.635 -0.0722,0.50813 -0.31574,0.6632 -1.21907,0.77611 -0.62089,0.0776 -1.14159,0.29986 -1.15711,0.49389 -0.0623,0.7781 -0.12524,0.91722 -0.41527,0.91722 -0.16631,0 -0.49289,0.1905 -0.72572,0.42334 -0.23283,0.23283 -0.63812,0.42333 -0.90063,0.42333 -0.26252,0 -0.71573,0.3175 -1.00715,0.70556 -0.29142,0.38805 -0.76606,0.70555 -1.05477,0.70555 -0.2887,0 -0.52491,0.127 -0.52491,0.28223 0,0.15522 -0.30711,0.28222 -0.68247,0.28222 -0.37536,0 -0.91511,0.0918 -1.19945,0.20392 -0.42891,0.16918 -0.37274,0.23561 0.3297,0.38994 l 0.84667,0.18602 -0.91723,0.0334 c -0.50447,0.0184 -0.91722,0.14923 -0.91722,0.29081 0,0.14158 -0.53975,0.35559 -1.19944,0.47558 -1.18735,0.21596 -1.19091,0.22014 -0.35278,0.41475 l 0.84667,0.19658 -0.77612,0.0334 c -0.45006,0.0194 -0.74646,0.17877 -0.70555,0.37946 0.0388,0.19035 -0.21708,0.38992 -0.56863,0.44351 -0.35155,0.0536 -0.56631,0.21536 -0.47723,0.35948 0.0891,0.14413 -0.16703,0.26205 -0.56912,0.26205 -0.40209,0 -0.80417,0.1905 -0.89352,0.42333 -0.0894,0.23283 -0.41035,0.42333 -0.71335,0.42333 -0.303,0 -0.47242,0.127 -0.37648,0.28223 0.0959,0.15522 0.0399,0.28222 -0.12446,0.28222 -0.16438,0 -0.29888,0.1905 -0.29888,0.42333 0,0.31985 -0.34494,0.42333 -1.41111,0.42333 -0.77611,0 -1.41111,0.127 -1.41111,0.28223 0,0.15522 -0.30163,0.28222 -0.67028,0.28222 -0.36865,0 -1.09296,0.0845 -1.60957,0.18786 -0.79539,0.15907 -0.85484,0.22089 -0.38805,0.40349 0.39501,0.15453 0.21129,0.22127 -0.64821,0.23548 -0.6597,0.0109 -1.19945,0.14684 -1.19945,0.30206 0,0.45604 -5.7139,0.34237 -6.12137,-0.12178 z m -13.70145,-18.6988 c -0.26983,-0.0706 -0.77783,-0.0732 -1.12889,-0.006 -0.35106,0.0675 -0.13029,0.1253 0.4906,0.12843 0.62089,0.003 0.90812,-0.0521 0.63829,-0.12273 z m 16.15393,-13.5888 c -3.71164,-1.58371 -6.60065,-3.93832 -8.79269,-7.16625 -1.53721,-2.26364 -2.59434,-4.80249 -3.60732,-8.66347 -0.44645,-1.70169 -0.89246,-3.22459 -0.99111,-3.38422 -0.28655,-0.46365 -1.91526,-0.79801 -7.63633,-1.56771 -2.95027,-0.39692 -6.82377,-0.97297 -8.60778,-1.28012 -1.78401,-0.30714 -3.78341,-0.55929 -4.4431,-0.56032 -0.65969,-0.001 -1.19944,-0.0745 -1.19944,-0.16328 0,-0.0888 0.33385,-0.73109 0.74189,-1.42736 0.55641,-0.94945 0.85629,-1.21523 1.19945,-1.06308 1.84225,0.81681 4.68979,1.32655 12.45199,2.22902 13.25861,1.54152 20.5666,2.69849 31.04445,4.91485 2.25072,0.47609 4.53672,0.87069 5.08,0.87689 0.54327,0.006 1.2343,0.19773 1.5356,0.42562 0.30131,0.2279 0.95748,0.41436 1.45815,0.41436 0.50068,0 0.95265,0.12412 1.00439,0.27583 0.0517,0.15171 0.50683,0.35808 1.0113,0.45861 0.7335,0.14617 0.91722,0.0909 0.91722,-0.27583 0,-0.25223 -0.22225,-0.45914 -0.49389,-0.45979 -0.27164,-5.7e-4 -1.11866,-0.31815 -1.88227,-0.70556 -0.76361,-0.3874 -1.77127,-0.70437 -2.23923,-0.70437 -0.46796,0 -1.36719,-0.2457 -1.99828,-0.54599 -2.31358,-1.10089 -21.06014,-4.68296 -29.93411,-5.71978 -4.65209,-0.54354 -1.94844,-0.6127 3.46815,-0.0887 4.6315,0.44804 13.99048,1.76579 22.07297,3.10788 2.25072,0.37373 5.23522,0.77654 6.63222,0.89512 1.397,0.11858 2.2225,0.26978 1.83444,0.33599 -0.58626,0.10004 -0.46696,0.1916 0.70556,0.54151 1.85967,0.55498 4.65666,0.77732 4.65666,0.37017 0,-0.16901 -0.22225,-0.31622 -0.49388,-0.32713 -0.42233,-0.017 -0.41211,-0.055 0.0706,-0.26238 0.31045,-0.13341 0.40075,-0.25148 0.20067,-0.26239 -0.24058,-0.0131 -0.17221,-0.22545 0.20191,-0.62702 0.31112,-0.33395 0.49908,-0.71495 0.41767,-0.84667 -0.0814,-0.13171 0.27224,-0.24841 0.78587,-0.25932 0.51364,-0.0109 1.18788,-0.12898 1.49833,-0.26238 l 0.56444,-0.24255 -0.56444,-0.048 c -0.47824,-0.0406 -0.45669,-0.0818 0.14111,-0.26981 l 0.70555,-0.22183 -0.87018,-0.19924 c -1.49783,-0.34293 -1.08187,-0.99416 0.635,-0.99416 1.49148,0 1.50018,-0.005 0.95575,-0.54943 -0.76898,-0.76898 -2.11899,-1.42612 -2.92977,-1.42612 -0.37676,0 -0.83555,-0.18138 -1.01953,-0.40306 -0.5461,-0.65802 -4.89555,-2.09348 -8.5773,-2.83078 -4.87126,-0.97551 -9.69657,-1.28172 -20.19794,-1.28172 -5.56924,0 -9.06693,-0.10168 -8.90414,-0.25884 0.44603,-0.43061 11.79405,-0.95937 16.49589,-0.76862 7.07305,0.28694 13.365,1.19088 20.16159,2.89652 5.29161,1.32796 7.93234,2.39181 10.84105,4.36746 3.38634,2.30005 3.37474,2.28912 3.8464,3.62593 0.23193,0.65736 0.83603,1.72301 1.34244,2.36811 l 0.92074,1.17291 -0.84666,-0.65896 c -0.46567,-0.36243 -1.76444,-1.53671 -2.88616,-2.60951 -1.12172,-1.07281 -2.24046,-1.95055 -2.4861,-1.95055 -0.24563,0 -0.37482,0.11615 -0.28709,0.25811 0.0877,0.14197 -10e-6,0.33247 -0.19501,0.42334 -0.26921,0.12545 -0.27344,0.20356 -0.0176,0.32456 0.18531,0.0876 0.26697,0.34164 0.18147,0.56444 -0.0855,0.22281 -0.007,0.4051 0.17362,0.4051 0.18099,0 0.25059,0.127 0.15465,0.28222 -0.0959,0.15523 0.0553,0.29225 0.33613,0.30451 0.2808,0.0122 0.36472,0.082 0.18649,0.15505 -0.50112,0.20532 -0.11492,2.40683 0.55062,3.13878 0.48092,0.52892 0.50205,0.635 0.12648,0.635 -0.95825,0 0.33053,1.56092 2.79713,3.38779 1.6592,1.22886 2.31252,1.86059 1.98872,1.92295 -0.70523,0.13581 -0.58956,0.89635 0.27331,1.79698 1.2209,1.27436 0.58298,1.20094 -1.54906,-0.17826 -1.87067,-1.21013 -2.87537,-1.57891 -2.87537,-1.05542 0,0.12627 1.2023,1.04702 2.67179,2.04611 2.30715,1.5686 2.7886,2.03855 3.52777,3.44342 0.54023,1.02676 0.85599,2.04421 0.85599,2.75817 v 1.13127 l -0.77611,-0.49283 c -0.42686,-0.27106 -1.60161,-1.14227 -2.61055,-1.93602 -3.06033,-2.40761 -7.62011,-4.91332 -8.9517,-4.91918 -0.44007,-0.002 -0.57787,-0.12857 -0.4637,-0.42609 0.1188,-0.30958 -0.0353,-0.42334 -0.5733,-0.42334 -0.40466,0 -0.73575,-0.11844 -0.73575,-0.2632 0,-0.14476 -0.28575,-0.34351 -0.635,-0.44166 -0.34925,-0.0982 -1.36766,-0.49591 -2.26313,-0.88391 -2.46061,-1.06617 -2.92105,-0.90582 -4.56196,1.58877 -3.63732,5.52965 -10.27432,9.80522 -14.21051,9.15444 -0.73178,-0.12099 -1.45751,-0.18475 -1.61273,-0.1417 -0.15522,0.0431 -1.04422,0.12431 -1.97556,0.18056 -1.37167,0.0828 -2.0418,-0.0464 -3.52778,-0.68045 z m 7.31975,-1.91127 c 4.42657,-1.08482 8.87473,-4.35606 10.59267,-7.79003 0.68696,-1.37315 0.91681,-2.10854 0.72043,-2.30492 -0.15862,-0.15863 -0.2884,-0.49662 -0.2884,-0.7511 0,-0.56229 -1.06934,-1.0817 -2.68204,-1.30275 l -1.19904,-0.16435 -0.11496,1.80532 c -0.11753,1.84586 -1.02352,4.09978 -1.83457,4.56403 -0.22526,0.12895 -0.52639,0.5417 -0.66916,0.91723 -0.28525,0.75024 -0.77343,0.89722 -1.00197,0.30166 -0.0804,-0.20962 0.28664,-0.81401 0.81572,-1.34309 0.96272,-0.96272 1.64712,-2.71742 2.05167,-5.26017 0.18852,-1.18493 0.17805,-1.20421 -0.90357,-1.66408 -0.60187,-0.2559 -1.6763,-0.5243 -2.38763,-0.59644 -1.44469,-0.14653 -1.27404,-0.36432 -2.3789,3.036 -1.05182,3.2371 -1.61295,3.69813 -3.89779,3.20243 -0.85551,-0.1856 -1.16812,-0.38894 -1.13967,-0.74131 0.0216,-0.26706 -0.11973,-0.48556 -0.31397,-0.48556 -0.21152,0 -0.32133,-0.29007 -0.27378,-0.72321 0.0468,-0.42645 -0.0862,-0.78676 -0.32422,-0.87808 -0.2721,-0.10442 -0.36926,-0.46648 -0.29821,-1.11124 0.0809,-0.73388 -5.7e-4,-0.95737 -0.3496,-0.96068 -0.35752,-0.003 -0.3742,-0.0555 -0.0779,-0.24336 0.2074,-0.13147 0.33757,-0.47877 0.28926,-0.77179 -0.0483,-0.29301 0.0117,-0.6915 0.13344,-0.88553 0.15032,-0.23965 0.0349,-0.35278 -0.35982,-0.35278 -0.3196,0 -0.54935,-0.15027 -0.51054,-0.33394 0.0961,-0.45502 -1.12022,-1.02324 -2.92181,-1.3649 -2.18815,-0.41497 -2.34309,-0.17437 -1.9803,3.07504 0.34687,3.10691 1.61303,5.86102 2.92158,6.35494 0.85778,0.32378 0.99402,0.77191 0.38765,1.27516 -0.46463,0.3856 -1.2999,-0.27977 -1.2999,-1.03549 0,-0.25055 -0.24536,-0.71773 -0.54524,-1.03818 -0.29989,-0.32044 -1.00521,-1.85263 -1.56738,-3.40485 -0.84608,-2.33612 -0.99119,-3.04926 -0.84247,-4.14033 0.15237,-1.11791 0.0978,-1.36192 -0.35937,-1.60658 -0.96866,-0.51842 -3.39034,-0.69996 -4.30167,-0.32248 -0.73027,0.30249 -0.85054,0.50072 -0.85054,1.40182 0,0.57722 0.2558,2.05407 0.56843,3.28187 0.74948,2.94335 3.39877,6.92457 6.04091,9.07796 1.00103,0.81586 2.05069,1.56541 2.33258,1.66567 0.28189,0.10027 0.71335,0.3538 0.95881,0.5634 0.49091,0.41921 4.2303,1.46847 5.32124,1.49313 0.37814,0.009 1.52114,-0.18875 2.54,-0.43844 z m 18.1367,-17.94691 c -0.26341,-0.26341 -0.41393,-0.26341 -0.67733,0 -0.26341,0.26341 -0.18815,0.33867 0.33866,0.33867 0.52682,0 0.60208,-0.0753 0.33867,-0.33867 z m 2.27726,-3.51534 c -0.19107,-0.0773 -0.57207,-0.082 -0.84667,-0.0105 -0.27459,0.0716 -0.11826,0.13481 0.34741,0.14056 0.46567,0.006 0.69033,-0.0528 0.49926,-0.1301 z m -7.20204,3.10265 c 0.19403,-0.0783 0.51153,-0.0783 0.70556,0 0.19403,0.0783 0.0353,0.14235 -0.35278,0.14235 -0.38806,0 -0.54681,-0.0641 -0.35278,-0.14235 z"
         style="fill:#ffffff;fill-opacity:1;stroke-width:0.28222224" />
    </g>
    <path
       transform="matrix(0.40053072,0,0,0.40053072,-117.256,201.27625)"
       d="m 422.11133,181.81055 a 1.7933203,1.7933203 0 0 0 -1.7461,2.20507 l 8.81836,37.38086 a 1.7933203,1.7933203 0 0 0 1.7461,1.38086 h 3.89453 a 1.7933203,1.7933203 0 0 0 1.74219,-1.36914 l 9.09375,-37.38086 a 1.7933203,1.7933203 0 0 0 -1.74219,-2.21679 h -3.30664 a 1.7933203,1.7933203 0 0 0 -1.7461,1.38281 c -3.65303,15.52536 -5.13611,21.92544 -5.87695,25.23828 -0.0832,-0.3714 -0.15815,-0.82241 -0.24219,-1.18555 a 1.7933203,1.7933203 0 0 0 0,-0.002 l -5.58203,-24.04687 a 1.7933203,1.7933203 0 0 0 -1.74609,-1.38672 z"
       id="path1184"
       style="font-style:normal;font-variant:normal;font-weight:normal;font-stretch:normal;font-size:28.22222137px;line-height:1.25;font-family:'PT Sans Narrow';-inkscape-font-specification:'PT Sans Narrow';text-align:end;letter-spacing:0px;word-spacing:0px;text-anchor:end;fill:#ffffff;fill-opacity:1;stroke:none;stroke-width:0.26458332"
       inkscape:original="M 422.11133 183.60352 L 430.92969 220.98438 L 434.82422 220.98438 L 443.91797 183.60352 L 440.61133 183.60352 C 436.38534 201.56395 434.12279 211.28009 433.82422 212.75 C 433.52564 214.21991 433.29554 215.55179 433.13477 216.74609 L 432.85938 216.74609 C 432.26223 213.46177 431.64308 210.42943 431 207.65039 L 425.41797 183.60352 L 422.11133 183.60352 z "
       inkscape:radius="1.793141"
       sodipodi:type="inkscape:offset" />
    <path
       transform="matrix(0.40917254,0,0,0.40917254,-139.21892,195.08348)"
       d="m 522.16211,193.10547 a 1.3607316,1.3607316 0 0 0 -1.23828,1.92578 l 7.9414,17.41797 -8.6289,18.83008 a 1.3607316,1.3607316 0 0 0 1.23633,1.92773 h 3.37695 a 1.3607316,1.3607316 0 0 0 1.24609,-0.81641 l 5.81055,-13.29101 5.75,13.28711 a 1.3607316,1.3607316 0 0 0 1.24805,0.82031 h 3.44531 a 1.3607316,1.3607316 0 0 0 1.23633,-1.93164 l -8.49024,-18.41601 8.08008,-17.83008 a 1.3607316,1.3607316 0 0 0 -1.23828,-1.92383 h -3.41211 a 1.3607316,1.3607316 0 0 0 -1.25,0.82226 l -5.26758,12.20118 -5.03906,-12.18164 a 1.3607316,1.3607316 0 0 0 -1.25781,-0.8418 z"
       id="path1186"
       style="font-style:normal;font-variant:normal;font-weight:normal;font-stretch:normal;font-size:28.22222137px;line-height:1.25;font-family:'PT Sans Narrow';-inkscape-font-specification:'PT Sans Narrow';text-align:end;letter-spacing:0px;word-spacing:0px;text-anchor:end;fill:#ffffff;fill-opacity:1;stroke:none;stroke-width:0.26458332"
       inkscape:original="M 522.16211 194.4668 L 530.36133 212.45117 L 521.47266 231.8457 L 524.84961 231.8457 L 531.91211 215.68945 L 538.9043 231.8457 L 542.34961 231.8457 L 533.59961 212.86328 L 541.9375 194.4668 L 538.52539 194.4668 L 531.98047 209.625 L 525.71094 194.4668 L 522.16211 194.4668 z "
       inkscape:radius="1.3605956"
       sodipodi:type="inkscape:offset" />
    <path
       transform="matrix(0.38590402,0,0,0.38590402,-109.47678,200.28396)"
       d="m 539.96875,191.6875 a 1.7427846,1.7427846 0 0 0 -1.74219,1.74219 v 39.03515 a 1.7427846,1.7427846 0 0 0 1.74219,1.74219 h 2.61719 a 1.7427846,1.7427846 0 0 0 1.74218,-1.74219 v -14.89843 l 0.92383,-1.21875 7.95899,16.86132 a 1.7427846,1.7427846 0 0 0 1.57617,0.99805 h 2.9375 a 1.7427846,1.7427846 0 0 0 1.57031,-2.5 l -10.15039,-21.04101 9.3457,-16.37305 a 1.7427846,1.7427846 0 0 0 -1.51367,-2.60547 h -2.85742 a 1.7427846,1.7427846 0 0 0 -1.51953,0.88867 c -4.8564,8.6421 -6.41839,11.47545 -8.27149,14.82227 v -13.96875 a 1.7427846,1.7427846 0 0 0 -1.74218,-1.74219 z"
       id="path1188"
       style="font-style:normal;font-variant:normal;font-weight:normal;font-stretch:normal;font-size:28.22222137px;line-height:1.25;font-family:'PT Sans Narrow';-inkscape-font-specification:'PT Sans Narrow';text-align:end;letter-spacing:0px;word-spacing:0px;text-anchor:end;fill:#ffffff;fill-opacity:1;stroke:none;stroke-width:0.26458332"
       inkscape:original="M 539.96875 193.42969 L 539.96875 232.46484 L 542.58594 232.46484 L 542.58594 216.98047 L 545.60156 213.00195 L 554.78711 232.46484 L 557.72461 232.46484 L 547.17773 210.59766 L 556.97656 193.42969 L 554.11914 193.42969 C 547.33747 205.49786 543.49372 212.38694 542.58594 214.0957 L 542.58594 193.42969 L 539.96875 193.42969 z "
       inkscape:radius="1.7426103"
       sodipodi:type="inkscape:offset" />
    <path
       transform="matrix(0.38501971,0,0,0.38501971,-110.24869,203.49847)"
       d="m 454.91797,183.36328 a 1.7917772,1.7917772 0 0 0 -1.79102,1.79102 v 39.03515 a 1.7917772,1.7917772 0 0 0 1.79102,1.79102 h 14.15039 a 1.7917772,1.7917772 0 0 0 1.79102,-1.79102 v -2.50976 a 1.7917772,1.7917772 0 0 0 -1.79102,-1.79102 h -9.74219 V 206.7832 h 9.10156 a 1.7917772,1.7917772 0 0 0 1.79102,-1.79101 v -2.50977 a 1.7917772,1.7917772 0 0 0 -1.79102,-1.79101 h -9.10156 v -11.23633 h 9.74219 a 1.7917772,1.7917772 0 0 0 1.79102,-1.79102 v -2.50976 a 1.7917772,1.7917772 0 0 0 -1.79102,-1.79102 z"
       id="path1190"
       style="font-style:normal;font-variant:normal;font-weight:normal;font-stretch:normal;font-size:28.22222137px;line-height:1.25;font-family:'PT Sans Narrow';-inkscape-font-specification:'PT Sans Narrow';text-align:end;letter-spacing:0px;word-spacing:0px;text-anchor:end;fill:#ffffff;fill-opacity:1;stroke:none;stroke-width:0.26458332"
       inkscape:original="M 454.91797 185.1543 L 454.91797 224.18945 L 469.06836 224.18945 L 469.06836 221.67969 L 457.53516 221.67969 L 457.53516 204.99219 L 468.42773 204.99219 L 468.42773 202.48242 L 457.53516 202.48242 L 457.53516 187.66406 L 469.06836 187.66406 L 469.06836 185.1543 L 454.91797 185.1543 z "
       inkscape:radius="1.7915981"
       sodipodi:type="inkscape:offset" />
    <path
       transform="matrix(0.41021144,0,0,0.41021144,-121.21788,199.30387)"
       d="m 505.48242,182.32812 a 1.4003471,1.4003471 0 0 0 -1.35742,1.74024 l 9.25,36.9668 -1.56836,6.13476 a 1.4003471,1.4003471 0 0 0 -0.006,0.0234 c -0.59974,2.53229 -1.3029,4.30721 -1.92578,5.21484 a 1.4003471,1.4003471 0 0 0 -0.008,0.0117 c -0.59665,0.88644 -1.1375,1.17188 -2.11133,1.17188 -0.70069,0 -1.43642,-0.12843 -2.22461,-0.4043 a 1.4003471,1.4003471 0 0 0 -1.86328,1.32227 v 2.96289 a 1.4003471,1.4003471 0 0 0 0.93359,1.32031 c 1.21187,0.4292 2.34784,0.66601 3.42969,0.66601 2.51449,0 4.75026,-1.06701 6.26953,-3.01757 1.50002,-1.89699 2.59581,-4.53729 3.42774,-7.93555 v -0.002 l 10.91992,-44.44141 a 1.4003471,1.4003471 0 0 0 -1.35938,-1.73438 h -3.30664 a 1.4003471,1.4003471 0 0 0 -1.36328,1.07813 l -5.51172,23.25586 c -0.27293,1.15593 -0.40704,2.21506 -0.63867,3.3418 -0.22508,-1.05406 -0.43696,-2.30354 -0.66797,-3.27539 a 1.4003471,1.4003471 0 0 0 0,-0.006 l -5.65039,-23.32422 a 1.4003471,1.4003471 0 0 0 -1.36133,-1.07032 z"
       id="path1192"
       style="font-style:normal;font-variant:normal;font-weight:normal;font-stretch:normal;font-size:28.22222137px;line-height:1.25;font-family:'PT Sans Narrow';-inkscape-font-specification:'PT Sans Narrow';text-align:end;letter-spacing:0px;word-spacing:0px;text-anchor:end;fill:#ffffff;fill-opacity:1;stroke:none;stroke-width:0.26458332"
       inkscape:original="M 505.48242 183.72852 L 514.81836 221.03906 L 513.16406 227.51562 C 512.54395 230.1339 511.83315 232.02984 511.0293 233.20117 C 510.22544 234.39547 509.1339 234.99219 507.75586 234.99219 C 506.8831 234.99219 505.98705 234.83131 505.06836 234.50977 L 505.06836 237.47266 C 506.17079 237.8631 507.15849 238.05859 508.03125 238.05859 C 510.19018 238.05859 511.91305 237.23177 513.19922 235.57812 C 514.50836 233.92448 515.56528 231.4562 516.36914 228.17188 L 527.28906 183.72852 L 523.98242 183.72852 L 518.4707 206.98438 C 517.68981 210.29167 517.08091 213.47269 516.64453 216.52734 L 516.36914 216.52734 C 515.74902 213.01335 515.1055 209.85475 514.43945 207.05273 L 508.78906 183.72852 L 505.48242 183.72852 z "
       inkscape:radius="1.400207"
       sodipodi:type="inkscape:offset" />
    <path
       sodipodi:type="inkscape:offset"
       inkscape:radius="1.793141"
       inkscape:original="M 422.11133 183.60352 L 430.92969 220.98438 L 434.82422 220.98438 L 443.91797 183.60352 L 440.61133 183.60352 C 436.38534 201.56395 434.12279 211.28009 433.82422 212.75 C 433.52564 214.21991 433.29554 215.55179 433.13477 216.74609 L 432.85938 216.74609 C 432.26223 213.46177 431.64308 210.42943 431 207.65039 L 425.41797 183.60352 L 422.11133 183.60352 z "
       style="font-style:normal;font-variant:normal;font-weight:normal;font-stretch:normal;font-size:28.22222137px;line-height:1.25;font-family:'PT Sans Narrow';-inkscape-font-specification:'PT Sans Narrow';text-align:end;letter-spacing:0px;word-spacing:0px;text-anchor:end;fill:#ffffff;fill-opacity:1;stroke:none;stroke-width:0.26458332"
       id="path1194"
       d="m 422.11133,181.81055 a 1.7933203,1.7933203 0 0 0 -1.7461,2.20507 l 8.81836,37.38086 a 1.7933203,1.7933203 0 0 0 1.7461,1.38086 h 3.89453 a 1.7933203,1.7933203 0 0 0 1.74219,-1.36914 l 9.09375,-37.38086 a 1.7933203,1.7933203 0 0 0 -1.74219,-2.21679 h -3.30664 a 1.7933203,1.7933203 0 0 0 -1.7461,1.38281 c -3.65303,15.52536 -5.13611,21.92544 -5.87695,25.23828 -0.0832,-0.3714 -0.15815,-0.82241 -0.24219,-1.18555 a 1.7933203,1.7933203 0 0 0 0,-0.002 l -5.58203,-24.04687 a 1.7933203,1.7933203 0 0 0 -1.74609,-1.38672 z"
       transform="matrix(0.40053072,0,0,-0.40053072,-127.67536,363.32613)" />
    <g
       transform="matrix(0.47050916,0,0,0.47050916,-160.42349,188.39834)"
       id="g1208"
       style="fill:#ffffff">
      <path
         sodipodi:type="inkscape:offset"
         inkscape:radius="0.49638191"
         inkscape:original="M 591.73438 188.03125 L 591.73438 191.47656 L 612.4043 202.98242 L 591.73438 214.49023 L 591.73438 218.00391 L 615.95312 204.11914 L 615.95312 201.77734 L 591.73438 188.03125 z "
         style="font-style:normal;font-variant:normal;font-weight:normal;font-stretch:normal;font-size:28.22222137px;line-height:1.25;font-family:'PT Sans Narrow';-inkscape-font-specification:'PT Sans Narrow';text-align:end;letter-spacing:0px;word-spacing:0px;text-anchor:end;fill:#ffffff;fill-opacity:1;stroke:none;stroke-width:0.26458332"
         id="path1200"
         d="m 591.74219,187.53516 a 0.49643155,0.49643155 0 0 0 -0.50391,0.49609 v 3.44531 a 0.49643155,0.49643155 0 0 0 0.25391,0.4336 l 19.89062,11.07226 -19.89062,11.07422 a 0.49643155,0.49643155 0 0 0 -0.25391,0.43359 v 3.51368 a 0.49643155,0.49643155 0 0 0 0.74219,0.42968 l 24.21875,-13.88476 a 0.49643155,0.49643155 0 0 0 0.25,-0.42969 v -2.3418 a 0.49643155,0.49643155 0 0 0 -0.25195,-0.43164 l -24.21875,-13.74609 a 0.49643155,0.49643155 0 0 0 -0.23633,-0.0645 z"
         transform="translate(7.9375007,-1.0583333)" />
      <g
         id="g1206"
         style="fill:#ffffff"
         transform="translate(7.4083337)">
        <rect
           ry="0.70828021"
           y="213.23874"
           x="566.04779"
           height="4.3569999"
           width="22.388"
           id="rect1202"
           style="opacity:1;fill:#ffffff;fill-opacity:1;stroke:none;stroke-width:0.56595272;stroke-linecap:round;stroke-linejoin:round;stroke-miterlimit:4;stroke-dasharray:none;stroke-opacity:1;paint-order:normal" />
        <path
           inkscape:connector-curvature="0"
           id="path1204"
           d="m 566.36699,213.23874 c -0.1768,0 -0.31935,0.14256 -0.31935,0.31936 v 1.46606 h 22.3883 v -1.46606 c 0,-0.1768 -0.14256,-0.31936 -0.31935,-0.31936 z"
           style="opacity:1;fill:#ffffff;fill-opacity:1;stroke:none;stroke-width:0.56595266;stroke-linecap:round;stroke-linejoin:round;stroke-miterlimit:4;stroke-dasharray:none;stroke-opacity:1;paint-order:normal" />
      </g>
    </g>
  </g>
</svg>
